<svg xmlns="http://www.w3.org/2000/svg" width="256" height="256" viewBox="0 0 100 100"><rect width="100" height="100" rx="50" fill="#ff956e"></rect><path d="M20.21 75.11L20.21 75.11Q21.56 72.14 23.45 67.46Q25.34 62.78 27.41 57.33Q29.48 51.89 31.64 46.17Q33.80 40.46 35.69 35.33Q37.58 30.20 38.97 26.15Q40.37 22.10 41 19.94L41 19.94Q35.33 22.28 31.28 27.05Q27.23 31.82 25.16 39.02L25.16 39.02Q23.09 38.30 21.38 36.45Q19.67 34.61 19.13 31.82L19.13 31.82Q20.03 27.68 22.50 24.26Q24.98 20.84 28.76 18.41Q32.54 15.98 37.49 14.67Q42.44 13.37 48.11 13.37L48.11 13.37Q55.31 13.37 61.34 15.48Q67.37 17.60 71.69 21.38Q76.01 25.16 78.44 30.47Q80.87 35.78 80.87 42.26L80.87 42.26Q80.87 51.08 77.63 59.09Q74.39 67.10 68.86 73.22Q63.32 79.34 56.03 82.98Q48.74 86.63 40.73 86.63L40.73 86.63Q33.35 86.63 28.08 83.70Q22.82 80.78 20.21 75.11ZM51.98 17.87L51.98 17.87Q47.48 17.87 43.43 19.13L43.43 19.13Q47.39 20.57 50 22.14Q52.61 23.72 53.60 24.62L53.60 24.62Q52.88 25.61 51.48 28.13Q50.09 30.65 48.25 34.25Q46.40 37.85 44.33 42.12Q42.26 46.40 40.28 50.90L40.28 50.90Q35.15 62.33 32.86 68.90Q30.56 75.47 30.56 77.99L30.56 77.99Q31.82 78.44 33.62 78.62Q35.42 78.80 37.49 78.80L37.49 78.80Q44.78 78.80 51.30 75.42Q57.83 72.05 62.73 66.38Q67.64 60.71 70.47 53.19Q73.31 45.68 73.31 37.40L73.31 37.40Q73.31 28.13 67.55 23.00Q61.79 17.87 51.98 17.87Z" fill="#fff"></path></svg>